<svg width="80" height="80" viewBox="0 0 80 80" fill="none" xmlns="http://www.w3.org/2000/svg">
<path d="M40.6734 14.5015C26.7379 14.5015 15.3994 25.8388 15.3994 39.7743C15.3994 53.7099 26.7367 65.0472 40.6734 65.0472C54.6101 65.0472 65.9487 53.711 65.9487 39.7743C65.9487 25.8388 54.6101 14.5015 40.6734 14.5015ZM40.6734 60.2734C29.3719 60.2734 20.1755 51.0782 20.1755 39.7755C20.1755 28.4728 29.3707 19.2788 40.6734 19.2788C51.9773 19.2788 61.1725 28.4728 61.1725 39.7755C61.1725 51.0794 51.9773 60.2734 40.6734 60.2734Z" fill="#432E42"/>
<path d="M38.4072 23.649C36.0163 23.6553 33.6677 24.2805 31.5902 25.4638C29.5126 26.647 27.7768 28.348 26.5516 30.4012C26.408 30.6727 26.3742 30.989 26.4574 31.2846C26.5405 31.5803 26.7341 31.8327 26.9982 31.9895C27.2623 32.1463 27.5766 32.1956 27.876 32.1271C28.1754 32.0586 28.437 31.8776 28.6066 31.6215C29.6188 29.9235 31.0535 28.5166 32.7711 27.538C34.4886 26.5593 36.4304 26.0422 38.4072 26.037C38.7238 26.037 39.0275 25.9112 39.2515 25.6873C39.4754 25.4634 39.6012 25.1597 39.6012 24.843C39.6012 24.5263 39.4754 24.2226 39.2515 23.9987C39.0275 23.7748 38.7238 23.649 38.4072 23.649ZM26.4251 33.3899C26.1169 33.3195 25.7935 33.3734 25.5248 33.5399C25.2561 33.7064 25.0639 33.9721 24.9899 34.2794C24.757 35.2657 24.6269 35.8758 24.6269 36.9898C24.6269 37.3065 24.7527 37.6102 24.9766 37.8342C25.2005 38.0581 25.5042 38.1839 25.8209 38.1839C26.1376 38.1839 26.4413 38.0581 26.6652 37.8342C26.8891 37.6102 27.0149 37.3065 27.0149 36.9898C27.0149 36.1349 27.1069 35.7087 27.3146 34.8251C27.387 34.5168 27.3339 34.1924 27.1671 33.9232C27.0003 33.6541 26.7334 33.4622 26.4251 33.3899ZM41.6358 68.0597C41.0025 68.0597 40.3951 68.3113 39.9472 68.7591C39.4994 69.207 39.2478 69.8144 39.2478 70.4478V77.6119C39.2478 78.2453 39.4994 78.8527 39.9472 79.3006C40.3951 79.7484 41.0025 80 41.6358 80C42.2692 80 42.8766 79.7484 43.3244 79.3006C43.7723 78.8527 44.0239 78.2453 44.0239 77.6119V70.4478C44.0239 69.8144 43.7723 69.207 43.3244 68.7591C42.8766 68.3113 42.2692 68.0597 41.6358 68.0597ZM41.6358 11.9403C42.2692 11.9403 42.8766 11.6887 43.3244 11.2409C43.7723 10.793 44.0239 10.1856 44.0239 9.55224V2.38806C44.0239 1.75471 43.7723 1.14729 43.3244 0.699446C42.8766 0.251598 42.2692 0 41.6358 0C41.0025 0 40.3951 0.251598 39.9472 0.699446C39.4994 1.14729 39.2478 1.75471 39.2478 2.38806V9.55224C39.2478 10.1856 39.4994 10.793 39.9472 11.2409C40.3951 11.6887 41.0025 11.9403 41.6358 11.9403ZM17.3791 59.6155L12.314 64.6806C12.0859 64.9009 11.904 65.1644 11.7789 65.4557C11.6537 65.7471 11.5878 66.0605 11.5851 66.3775C11.5823 66.6946 11.6427 67.0091 11.7628 67.3026C11.8829 67.5961 12.0602 67.8627 12.2844 68.0869C12.5087 68.3111 12.7753 68.4885 13.0688 68.6085C13.3623 68.7286 13.6767 68.789 13.9938 68.7863C14.3109 68.7835 14.6242 68.7176 14.9156 68.5925C15.2069 68.4673 15.4705 68.2854 15.6907 68.0573L20.7558 62.9922C20.9839 62.7719 21.1658 62.5084 21.291 62.2171C21.4161 61.9257 21.482 61.6124 21.4848 61.2953C21.4875 60.9782 21.4271 60.6637 21.307 60.3703C21.187 60.0768 21.0096 59.8101 20.7854 59.5859C20.5612 59.3617 20.2946 59.1844 20.0011 59.0643C19.7076 58.9442 19.3931 58.8838 19.0761 58.8866C18.759 58.8893 18.4456 58.9552 18.1543 59.0804C17.8629 59.2055 17.5994 59.3874 17.3791 59.6155ZM62.1266 20.6328C62.7379 20.6328 63.3481 20.4 63.8149 19.9331L68.88 14.8681C69.1081 14.6478 69.29 14.3843 69.4152 14.0929C69.5403 13.8016 69.6062 13.4882 69.609 13.1711C69.6117 12.854 69.5513 12.5396 69.4312 12.2461C69.3111 11.9526 69.1338 11.686 68.9096 11.4617C68.6854 11.2375 68.4187 11.0602 68.1253 10.9401C67.8318 10.8201 67.5173 10.7596 67.2002 10.7624C66.8831 10.7651 66.5698 10.831 66.2784 10.9562C65.9871 11.0813 65.7236 11.2633 65.5033 11.4913L60.4382 16.5564C60.1043 16.8904 59.877 17.3159 59.7849 17.779C59.6928 18.2422 59.7401 18.7223 59.9208 19.1586C60.1015 19.5949 60.4075 19.9678 60.8001 20.2302C61.1927 20.4926 61.6543 20.6327 62.1266 20.6328ZM17.3791 19.9331C17.846 20.4 18.4561 20.6328 19.0675 20.6328C19.5397 20.6327 20.0013 20.4926 20.3939 20.2302C20.7866 19.9678 21.0926 19.5949 21.2733 19.1586C21.454 18.7223 21.5013 18.2422 21.4092 17.779C21.3171 17.3159 21.0897 16.8904 20.7558 16.5564L15.6907 11.4913C15.4705 11.2633 15.2069 11.0813 14.9156 10.9562C14.6242 10.831 14.3109 10.7651 13.9938 10.7624C13.6767 10.7596 13.3623 10.8201 13.0688 10.9401C12.7753 11.0602 12.5087 11.2375 12.2844 11.4617C12.0602 11.686 11.8829 11.9526 11.7628 12.2461C11.6427 12.5396 11.5823 12.854 11.5851 13.1711C11.5878 13.4882 11.6537 13.8016 11.7789 14.0929C11.904 14.3843 12.0859 14.6478 12.314 14.8681L17.3791 19.9331ZM63.8149 59.6155C63.5946 59.3874 63.3311 59.2055 63.0398 59.0804C62.7484 58.9552 62.4351 58.8893 62.118 58.8866C61.8009 58.8838 61.4864 58.9442 61.1929 59.0643C60.8995 59.1844 60.6328 59.3617 60.4086 59.5859C60.1844 59.8101 60.0071 60.0768 59.887 60.3703C59.7669 60.6637 59.7065 60.9782 59.7093 61.2953C59.712 61.6124 59.7779 61.9257 59.903 62.2171C60.0282 62.5084 60.2101 62.7719 60.4382 62.9922L65.5033 68.0597C65.9701 68.5266 66.5803 68.7594 67.1916 68.7594C67.803 68.7594 68.4131 68.5266 68.88 68.0597C69.8113 67.1272 69.8113 65.6155 68.88 64.683L63.8149 59.6155ZM9.55224 38.209H2.38806C1.75471 38.209 1.14729 38.4606 0.699446 38.9084C0.251598 39.3562 0 39.9637 0 40.597C0 41.2304 0.251598 41.8378 0.699446 42.2856C1.14729 42.7335 1.75471 42.9851 2.38806 42.9851H9.55224C10.1856 42.9851 10.793 42.7335 11.2409 42.2856C11.6887 41.8378 11.9403 41.2304 11.9403 40.597C11.9403 39.9637 11.6887 39.3562 11.2409 38.9084C10.793 38.4606 10.1856 38.209 9.55224 38.209ZM77.6119 38.209H70.4478C69.8144 38.209 69.207 38.4606 68.7591 38.9084C68.3113 39.3562 68.0597 39.9637 68.0597 40.597C68.0597 41.2304 68.3113 41.8378 68.7591 42.2856C69.207 42.7335 69.8144 42.9851 70.4478 42.9851H77.6119C78.2453 42.9851 78.8527 42.7335 79.3006 42.2856C79.7484 41.8378 80 41.2304 80 40.597C80 39.9637 79.7484 39.3562 79.3006 38.9084C78.8527 38.4606 78.2453 38.209 77.6119 38.209Z" fill="#432E42"/>
</svg>
