<svg width="73" height="97" viewBox="0 0 73 97" fill="none" xmlns="http://www.w3.org/2000/svg">
<path d="M36.5 0C26.8196 0 17.5357 4.08783 10.6906 11.3642C3.84553 18.6406 0 28.5095 0 38.7999C0 64.9898 32.1656 94.5747 33.5344 95.8357C34.3608 96.5871 35.4125 97 36.5 97C37.5875 97 38.6392 96.5871 39.4656 95.8357C41.0625 94.5747 73 64.9898 73 38.7999C73 28.5095 69.1545 18.6406 62.3094 11.3642C55.4643 4.08783 46.1804 0 36.5 0ZM36.5 85.6022C26.7819 75.9023 9.125 54.9988 9.125 38.7999C9.125 31.0821 12.0091 23.6804 17.143 18.2231C22.2768 12.7658 29.2397 9.69997 36.5 9.69997C43.7603 9.69997 50.7232 12.7658 55.8571 18.2231C60.9909 23.6804 63.875 31.0821 63.875 38.7999C63.875 54.9988 46.2181 75.9508 36.5 85.6022ZM36.5 19.3999C32.8905 19.3999 29.362 20.5377 26.3608 22.6694C23.3596 24.8011 21.0205 27.831 19.6392 31.3758C18.2579 34.9207 17.8965 38.8214 18.6007 42.5846C19.3048 46.3478 21.043 49.8046 23.5953 52.5177C26.1476 55.2308 29.3994 57.0785 32.9396 57.827C36.4798 58.5756 40.1492 58.1914 43.484 56.7231C46.8187 55.2547 49.669 52.7682 51.6743 49.5779C53.6797 46.3876 54.75 42.6368 54.75 38.7999C54.75 33.6547 52.8272 28.7202 49.4047 25.082C45.9822 21.4439 41.3402 19.3999 36.5 19.3999ZM36.5 48.4998C34.6952 48.4998 32.931 47.9309 31.4304 46.8651C29.9298 45.7993 28.7602 44.2843 28.0696 42.5119C27.3789 40.7395 27.1982 38.7891 27.5503 36.9075C27.9024 35.0259 28.7715 33.2975 30.0477 31.941C31.3238 30.5844 32.9497 29.6606 34.7198 29.2863C36.4899 28.912 38.3246 29.1041 39.992 29.8383C41.6594 30.5724 43.0845 31.8157 44.0872 33.4109C45.0898 35.006 45.625 36.8814 45.625 38.7999C45.625 41.3725 44.6636 43.8397 42.9523 45.6588C41.2411 47.4779 38.9201 48.4998 36.5 48.4998Z" fill="url(#paint0_linear_74_347)"/>
<defs>
<linearGradient id="paint0_linear_74_347" x1="36.5" y1="37.6407" x2="36.5" y2="97" gradientUnits="userSpaceOnUse">
<stop stop-color="#432E42"/>
<stop offset="1" stop-color="#B56FB2"/>
</linearGradient>
</defs>
</svg>
