<svg width="80" height="80" viewBox="0 0 80 80" fill="none" xmlns="http://www.w3.org/2000/svg">
<path d="M27.527 79.0936C28.9671 79.3707 30.4256 79.5036 31.8864 79.5036C35.4709 79.5036 39.0508 78.6847 42.3563 77.2319C45.7065 79.055 49.3676 80 52.9635 80C54.2368 80 55.5009 79.8819 56.74 79.6433C69.5611 77.1728 77.4204 64.993 79.4675 44.4179C80.9866 29.1497 78.7749 14.3993 78.752 14.2517L78.5303 12.8L77.1712 13.3793C77.0055 13.4498 60.7805 20.424 47.7731 31.1692C44.2252 27.0404 39.7514 22.9149 34.3576 18.8269C19.6996 7.71706 3.22889 0.650849 3.06201 0.57929L1.70526 0L1.48237 1.45277C1.45608 1.62769 -1.17284 19.1711 0.633114 37.3302C3.06086 61.7308 12.3604 76.1733 27.527 79.0936ZM76.69 16.0872C77.7988 25.1446 82.2919 72.4067 56.3045 77.4125C52.5828 78.1292 48.5937 77.6124 44.9121 75.9609C49.1961 73.5267 52.8046 69.9556 55.0392 65.6529L60.9085 63.9911L60.2821 61.8057L56.229 62.953C57.4063 59.7237 57.9184 56.4365 57.7767 53.1084L65.7446 50.8572L65.1205 48.6717L58.6396 50.5028L64.4804 40.1051L62.4847 38.9987L57.1674 48.465C56.0279 43.3343 53.3727 38.1309 49.2327 32.9253C59.7872 24.203 72.5306 17.9978 76.69 16.0872ZM3.54321 3.28492C12.8324 7.53532 65.3228 33.0934 53.919 62.6304C52.1485 67.2159 48.6772 71.0312 44.4252 73.6176L38.629 63.3153L42.6444 49.4453L40.4475 48.8171L37.0585 60.5233L29.2552 46.6545L32.2373 36.3533L30.0404 35.7252L27.6858 43.8614L20.4517 31.0057L18.456 32.1131L25.6799 44.9529L17.4433 42.629L16.8193 44.8132L27.2584 47.7597L35.0525 61.6138L23.1995 58.2698L22.5766 60.4552L36.6322 64.4216L42.4226 74.7148C37.9523 76.9093 32.8374 77.7998 27.9624 76.8616C-3.45314 70.8143 2.28933 13.3384 3.54321 3.28492Z" fill="#432E42"/>
</svg>
