<svg width="31" height="35" viewBox="0 0 31 35" fill="none" xmlns="http://www.w3.org/2000/svg">
<path d="M15.5 0C11.3891 0 7.44666 1.47499 4.53984 4.10049C1.63303 6.72599 0 10.2869 0 14C0 23.4499 13.6594 34.1249 14.2406 34.5799C14.5916 34.851 15.0382 35 15.5 35C15.9618 35 16.4084 34.851 16.7594 34.5799C17.4375 34.1249 31 23.4499 31 14C31 10.2869 29.367 6.72599 26.4602 4.10049C23.5533 1.47499 19.6109 0 15.5 0ZM15.5 30.8874C11.3731 27.3874 3.875 19.8449 3.875 14C3.875 11.2152 5.09977 8.54448 7.27988 6.57536C9.45999 4.60623 12.4169 3.49999 15.5 3.49999C18.5831 3.49999 21.54 4.60623 23.7201 6.57536C25.9002 8.54448 27.125 11.2152 27.125 14C27.125 19.8449 19.6269 27.4049 15.5 30.8874ZM15.5 6.99998C13.9672 6.99998 12.4688 7.41052 11.1943 8.17969C9.91985 8.94885 8.92651 10.0421 8.33993 11.3212C7.75335 12.6003 7.59988 14.0077 7.89891 15.3656C8.19795 16.7234 8.93607 17.9707 10.0199 18.9497C11.1038 19.9287 12.4847 20.5953 13.9881 20.8654C15.4914 21.1355 17.0497 20.9969 18.4658 20.4671C19.8819 19.9373 21.0923 19.0401 21.9439 17.8889C22.7955 16.7378 23.25 15.3844 23.25 14C23.25 12.1434 22.4335 10.363 20.9801 9.05022C19.5267 7.73747 17.5554 6.99998 15.5 6.99998ZM15.5 17.4999C14.7336 17.4999 13.9844 17.2947 13.3472 16.9101C12.7099 16.5255 12.2133 15.9789 11.92 15.3393C11.6267 14.6998 11.5499 13.9961 11.6995 13.3171C11.849 12.6382 12.218 12.0146 12.76 11.5251C13.3019 11.0356 13.9923 10.7023 14.744 10.5672C15.4957 10.4322 16.2748 10.5015 16.9829 10.7664C17.691 11.0313 18.2962 11.4799 18.7219 12.0555C19.1477 12.631 19.375 13.3077 19.375 14C19.375 14.9282 18.9667 15.8184 18.24 16.4748C17.5133 17.1312 16.5277 17.4999 15.5 17.4999Z" fill="#EDFF45"/>
</svg>
