<svg width="80" height="80" viewBox="0 0 80 80" fill="none" xmlns="http://www.w3.org/2000/svg">
<path d="M75.267 32.7701C78.0732 29.5461 79.617 25.0623 79.7572 20.2967C79.7572 14.2696 77.3718 8.80372 73.1621 5.30042C68.9497 1.79623 63.0559 0.535678 57.1612 1.79623C53.2311 2.63748 49.7218 4.45916 47.055 7.1221C46.2134 5.58142 44.9483 4.17904 43.4063 2.91672C41.7857 1.63683 39.8934 0.744162 37.8741 0.30703C35.8548 -0.130101 33.7621 -0.100103 31.7562 0.39473C26.5638 1.79623 22.4925 6.56097 21.3704 12.0269C17.7208 9.64497 12.9491 8.94467 8.87875 10.6254C2.84378 13.1492 -0.384987 21.6982 0.0366977 28.1446V28.2855C0.879179 39.2183 5.79114 49.589 14.3527 58.5582C12.3881 61.0811 10.4235 63.6022 8.73849 66.1269C8.03716 67.2482 8.31769 68.6497 9.4407 69.4892C9.86061 69.7702 10.2832 69.9112 10.704 69.9112C11.4053 69.9112 12.2478 69.4892 12.6686 68.7889C17.1606 62.2025 23.0553 55.1941 29.512 48.6086C36.67 49.0279 47.4766 52.5312 50.7063 54.6339C51.1271 54.9149 51.5479 55.0549 51.9687 55.0549C52.8112 55.0549 53.5134 54.6339 53.9351 53.9336C54.6364 52.8122 54.355 51.4107 53.2329 50.7104C49.7235 48.4676 41.0218 45.6637 33.8629 44.5432C38.2147 40.4779 42.5647 36.5536 47.0567 33.1903C50.5651 33.0494 52.6709 33.1903 54.7758 34.7319C55.1966 35.012 55.6183 35.1521 56.1793 35.1521C56.8806 35.1521 57.724 34.7319 58.1448 34.1716C58.8461 33.0494 58.705 31.6479 57.582 30.8075C56.1793 29.8262 54.6364 29.125 53.0908 28.8449C56.7404 26.322 60.2497 24.2202 63.6169 22.5386C64.7408 21.9774 65.301 20.5759 64.7408 19.3154C64.1798 18.194 62.7753 17.6338 61.5121 18.194C55.3359 21.2771 48.5996 25.7618 41.7213 31.2277C42.0027 28.0045 41.3014 25.3407 39.7576 22.8187C39.0554 21.6973 37.6527 21.4172 36.5288 22.1184C35.4058 22.8187 35.1244 24.2202 35.8266 25.3416C37.0899 27.4434 37.9324 30.1072 35.8266 36.2734C29.2297 42.0204 22.9142 48.4676 17.4403 54.9149C9.85973 46.7842 5.50972 37.5358 4.8075 28.0054V27.8653C4.52697 23.1006 6.91326 16.6533 10.7022 15.1118C14.6323 13.5702 19.6845 15.3928 21.5098 19.1762C22.0708 20.2976 23.3341 20.7178 24.4571 20.2976C25.5801 19.8765 26.2814 18.756 26 17.6347C25.0182 12.3088 28.2461 6.56274 33.158 5.16035C35.5443 4.46005 38.3514 5.16035 40.5974 6.84286C42.5611 8.38442 43.6859 10.4862 43.6859 12.588C43.6859 13.7094 44.3872 14.6907 45.5111 14.9708C46.6333 15.2518 47.7554 14.6916 48.1762 13.7094C50.0032 10.2061 53.651 7.54317 58.143 6.56185C62.493 5.58143 66.9851 6.56185 70.0727 9.08473C73.1612 11.6067 74.9847 15.8112 74.8435 20.2967C74.8435 24.7813 72.8798 28.9858 69.7922 31.3677C69.09 31.9289 68.8094 32.7701 68.9497 33.6105C69.09 34.4509 69.6528 35.1521 70.4935 35.4322C73.582 36.5527 75.5457 40.0569 74.9856 43.28C74.4245 46.5041 71.336 49.0261 68.1081 49.0261C66.9851 49.0261 65.863 49.8665 65.7218 50.9878C65.5824 52.111 66.2846 53.2315 67.4068 53.6517C71.1966 54.773 74.1431 58.8384 74.1431 62.901C74.1431 64.5835 72.8807 68.2278 69.5125 71.31C67.2665 73.2726 63.4767 75.6554 57.7231 75.0952C52.3877 74.6741 49.3019 72.9925 36.8094 65.985C34.985 65.0037 32.8793 63.8832 30.6332 62.6227C29.5102 61.9215 27.9673 62.3425 27.4045 63.6013C26.7022 64.7245 27.1239 66.2651 28.3872 66.8272C30.6332 68.0868 32.7381 69.2091 34.5633 70.1895C47.616 77.478 50.9842 79.4415 57.4417 79.8599C58.1439 79.8599 58.8453 80 59.4063 80C65.7218 80 70.2139 77.3371 72.8816 74.8142C77.0922 71.0308 79.0559 66.1251 79.0559 62.901C79.0559 58.6974 77.2316 54.773 74.144 52.111C77.0922 50.4294 79.1971 47.4845 79.9002 44.1213C80.4595 39.7767 78.6351 35.4331 75.267 32.7701Z" fill="#432E42"/>
</svg>
