<svg width="72" height="80" viewBox="0 0 72 80" fill="none" xmlns="http://www.w3.org/2000/svg">
<path d="M68.8583 49.819L63.7555 52.7487L59.1093 50.0723L64.5121 46.9426C65.7753 46.2327 63.1489 41.6398 61.8857 42.3964L53.8565 47.0426L47.3939 43.3063V36.6903L53.8565 32.9541L61.8857 37.6003C63.1489 38.3102 65.7753 33.764 64.5121 33.0541L59.1127 29.9244L63.7588 27.248L68.8616 30.1777C69.7715 30.7343 71.738 27.3513 70.7814 26.8447L67.6018 25.0249L70.5781 23.3084C72.0413 22.4518 68.9616 17.149 67.4984 18.0056L64.5188 19.7221V16.0358C64.5188 14.9759 60.6292 14.9759 60.6292 16.0358V21.9419L55.983 24.6183V18.3556C55.983 16.8924 50.7335 16.8924 50.7335 18.3556V27.648L44.3209 31.3342L38.5648 28.1012V20.6287L46.5906 15.9858C47.8538 15.2759 45.2274 10.6831 43.9642 11.4396L38.5681 14.5627V9.21321L43.6676 6.27351C44.5775 5.7169 42.6577 2.38392 41.7478 2.94053L38.5681 4.76034V1.28737C38.5681 -0.429122 32.4088 -0.429122 32.4088 1.28737V4.72034L29.2291 2.90053C28.3192 2.34392 26.3527 5.7269 27.3093 6.23352L32.4054 9.16321V14.516L26.9993 11.3863C25.7361 10.6764 23.1097 15.2226 24.3729 15.9325L32.4021 20.5787V28.0546L26.646 31.2842L20.2334 27.548V18.3556C20.2334 16.8924 14.9839 16.8924 14.9839 18.3556V24.6183L10.3377 21.9419V16.0358C10.3377 14.9759 6.44813 14.9759 6.44813 16.0358V19.7221L3.46844 18.0056C2.00526 17.149 -1.07775 22.5052 0.388764 23.3084L3.36845 25.0249L0.23878 26.8447C-0.671126 27.4013 1.24867 30.7343 2.15858 30.1777L7.31138 27.248L11.9576 29.9244L6.55146 33.0541C5.28825 33.764 7.91465 38.3568 9.17785 37.6003L17.207 32.9541L23.6697 36.6903V43.3063L17.207 47.0426L9.17118 42.3998C7.90798 41.6898 5.28159 46.236 6.54479 46.9459L11.9476 50.0756L7.30138 52.752L2.20857 49.8223C1.29867 49.2657 -0.667793 52.6487 0.288775 53.1553L3.46844 54.9751L0.488754 56.6916C-0.974427 57.5482 2.10525 62.851 3.56843 61.9944L6.55146 60.2812V63.9675C6.55146 65.0274 10.4411 65.0274 10.4411 63.9675V58.0548L15.0939 55.3784V61.6411C15.0939 63.1043 20.3434 63.1043 20.3434 61.6411V52.3487L26.756 48.6624L32.5121 51.8954V59.3713L24.4829 64.0175C23.2197 64.7274 25.8461 69.3203 27.1093 68.5637L32.5121 65.434V70.7868L27.3593 73.7665C26.4494 74.3231 28.3692 77.6561 29.2791 77.0995L32.4588 75.2797V78.7126C32.4588 80.4291 38.6181 80.4291 38.6181 78.7126V75.2797L41.7978 77.0995C42.7077 77.6561 44.6742 74.2731 43.7176 73.7665L38.6148 70.8368V65.484L44.0176 68.6137C45.2808 69.3236 47.9072 64.7774 46.6439 64.0675L38.6148 59.4213V51.9488L44.3709 48.7158L50.7835 52.452V61.6444C50.7835 63.1076 56.033 63.1076 56.033 61.6444V55.3817L60.6792 58.0581V63.9675C60.6792 65.0274 64.5687 65.0274 64.5687 63.9675V60.2846L67.5484 62.001C69.0116 62.8576 72.0946 57.5015 70.6281 56.6983L67.6484 54.9818L70.8281 53.162C71.6913 52.602 69.7682 49.269 68.8583 49.8256V49.819ZM35.5284 47.8492L28.7125 43.9596V36.0337L35.5284 32.1975L42.3444 36.0337V43.9629L35.5284 47.8492Z" fill="#432E42"/>
</svg>
